<svg xmlns="http://www.w3.org/2000/svg" viewBox="0 0 546.69 527.36"><defs><style>.cls-1{fill:#fff;}.cls-2{fill:#d4181c;}.cls-3{fill:#e65b57;}.cls-4{fill:#f29292;}.cls-5{fill:#e1e1e0;}.cls-6{fill:#e75a57;}.cls-7{fill:none;stroke:#e3e3e2;stroke-miterlimit:10;}.cls-8{fill:#d9d6db;}.cls-9{fill:#e4e4ea;}.cls-10{fill:#48bedb;}.cls-11{fill:#66b0c9;}.cls-12{fill:#1f8eb9;}.cls-13{fill:#4ebfd6;}.cls-14{fill:#d8d6da;}.cls-15{fill:#42bace;}.cls-16{fill:#d7d8d7;}.cls-17{fill:#1d81b9;}</style></defs><g id="Capa_2" data-name="Capa 2"><g id="Capa_2-2" data-name="Capa 2"><g id="Capa_5" data-name="Capa 5"><path class="cls-1" d="M546.05,104.66a22.57,22.57,0,0,0-.12-11.16,33.19,33.19,0,0,0-8.16-16.57q-1.56-1.71-3.38-3.61c-8.45-9.93-20.16-19.51-31.58-27.65a246.51,246.51,0,0,0-24.45-15.88l-2.72-1.6A194.6,194.6,0,0,0,432.53,9.92,222.78,222.78,0,0,0,369.45.06c-1.8,0-3.36-.06-4.64-.06-2.15,0-3.32.05-3.32.05h-.37L360,.14a260.7,260.7,0,0,0-65.85,10.72l-.34.09c-2.54.71-4.91,1.45-7.15,2.22-2.95.95-5.89,1.93-8.84,3a33.44,33.44,0,0,0-22.09,33.68l.18,2.49a27,27,0,0,0,.32,4.71l5.47,79.15-1.48,1.24C242.83,124.53,204.65,101,158.14,101c-41.25,0-78.83,18.26-111.69,54.26-23.78,26.06-34.59,56.48-32.12,90.43.33,4.59.91,9.17,1.7,13.73-5.11,4.88-8.16,12.11-8.53,21.14C7,292.8,5.06,322.21,4.14,335.91a14.15,14.15,0,0,0-2.72,16.18c.15,15.5,5.26,25.56,12.33,31.41a14.2,14.2,0,0,0,.36,14.66c-1.29,28.27.36,46.89,5.12,58.27,9,21.44,16.76,33,53.72,53.76a60.18,60.18,0,0,0,29.82,7.45c35.55,0,70.66-26.85,72.14-28l.51-.41a100.5,100.5,0,0,0,8.6-8.55,14.19,14.19,0,0,0,7.16-4l60.87,47.66a14.16,14.16,0,0,0,16.89.44c1.88-1.32,24.11-17,50.81-37.07a43.24,43.24,0,0,0,7.1.58c13.7,0,25.61-6.12,26.92-6.82a14.91,14.91,0,0,0,1.66-1c1.54-1.12,34.13-24.87,62.89-54.43a30.88,30.88,0,0,0,7.55,15.62A30.06,30.06,0,0,0,449,452.36c18.17,0,33.71-15.57,36.94-19,7-7.33,13.29-23.44,1.95-38.29A33.53,33.53,0,0,0,468,382.5l-.42-.2c-2.87-6.73-8.77-11.66-16.73-13.68,25.44-29.5,47.8-64.88,51.21-109.85A159.39,159.39,0,0,0,493.51,193l47.84-75.82A33.19,33.19,0,0,0,546.05,104.66ZM57.59,350.37a37.88,37.88,0,0,0-1.81,4.94,29.52,29.52,0,0,1-10.77,2c-4.12,0-6.9-1-7.82-1.93a2.09,2.09,0,0,1-.41-.7,14.17,14.17,0,0,0-.51-18.2c.36-4.22,1-10.22,1.82-17.11A310.6,310.6,0,0,0,57.59,350.37ZM110,485.43a27.62,27.62,0,0,1-4,.29c-18.78,0-40-18.34-47.07-25.92-2-2.69-15.52-22.13-12.13-45.41,0-.07,2-15.66,2.64-20.59a15.47,15.47,0,0,0,1.45-1.47h0c13,0,23.71-4.05,30.77-11.47,6.91,7.95,13.64,15.12,19.79,21.36,4.28,18.48,16,51.14,38.8,64.54q2.84,1.67,5.72,3.09C136.76,476.24,123.87,483.33,110,485.43Z"/><path class="cls-2" d="M451.76,150.86s41.29,38.71,36.13,106.84S428.53,371.77,392.4,408.93,260.79,513.19,260.79,513.19l-121.29-95S-40.11,271.12,56.92,164.8,260.79,156,260.79,156C357.82,63.12,451.76,150.86,451.76,150.86ZM432.15,346.48c58.06-63.55,51.61-122.26,38.6-157.36A94.72,94.72,0,0,0,426,138.38c-31.75-16.75-86.88-34.84-138.51,2l-26.71,20.78s-50.06-49.29-117.16-39.74-96.26,68.12-96.26,68.12-30.71,50.58,15.49,129S214.86,426,214.86,426,339.24,448.15,432.15,346.48Z"/><path class="cls-3" d="M470.75,189.12c13,35.1,19.46,93.81-38.6,157.36C339.24,448.15,214.86,426,214.86,426s-105.81-28.9-152-107.35-15.49-129-15.49-129S76.53,131,143.63,121.45s117.16,39.74,117.16,39.74l26.71-20.78c51.63-36.87,106.76-18.78,138.51-2A94.72,94.72,0,0,1,470.75,189.12ZM351.13,309.35v-37.1a15,15,0,0,0-14.95-14.95H294.13V214.25a15,15,0,0,0-14.95-14.95h-36.1a15,15,0,0,0-15,14.95V258.3h-42a15,15,0,0,0-15,14.95v36.1a15,15,0,0,0,15,14.95l42-.09v42.14a15,15,0,0,0,15,14.95h36.1a15,15,0,0,0,14.95-14.95V324.3h42.05A15,15,0,0,0,351.13,309.35Zm-139.89-95c28.26-45.29-17.42-70.45-17.42-70.45s-39.88-23.48-84.38,14.32S88.15,233.7,88.15,233.7C101.69,262.74,183,259.64,211.24,214.35ZM96,273s4.07-8.71-2.7-12a12.72,12.72,0,0,0-9.79-.5,8.19,8.19,0,0,0-4.65,4,18,18,0,0,0-1.92,6.33c-.48,5,2.42,6.78,9.39,8.71S96,273,96,273Z"/><path class="cls-1" d="M351.13,272.25v37.1a15,15,0,0,1-14.95,14.95H294.13v42.05a15,15,0,0,1-14.95,14.95h-36.1a15,15,0,0,1-15-14.95V324.21l-42,.09a15,15,0,0,1-15-14.95v-36.1a15,15,0,0,1,15-14.95h42V214.25a15,15,0,0,1,15-14.95h36.1a15,15,0,0,1,14.95,14.95V257.3h42.05A15,15,0,0,1,351.13,272.25Z"/><path class="cls-4" d="M193.82,143.9s45.68,25.16,17.42,70.45S101.69,262.74,88.15,233.7c0,0-23.22-37.69,21.29-75.48S193.82,143.9,193.82,143.9Z"/><path class="cls-4" d="M93.28,261c6.77,3.29,2.7,12,2.7,12s-2.7,8.52-9.67,6.58-9.87-3.67-9.39-8.71a18,18,0,0,1,1.92-6.33,8.19,8.19,0,0,1,4.65-4A12.72,12.72,0,0,1,93.28,261Z"/><path class="cls-1" d="M532.07,96.36a19.09,19.09,0,0,1,.12,5.23h0c-3.12,9.06-12.82,13.91-12.82,13.91-10.56,6.59-20.29,11.92-25.94,14.91a52.56,52.56,0,0,1-10.81,4.31c-58.56,15.92-114.22-5.19-156-24.12C288.29,93.26,272.7,67.83,270.39,56l-.26-3.81c.93-8.35-1.54-17.78,21.17-25.62l.15-.05c2.21-.71,4.41-1.39,6.59-2,26.16-7.2,56.44-9.74,62.78-10.21h.05c2.89-.08,5.73-.09,8.55,0A238.69,238.69,0,0,1,432,24.58l.15.05a215.93,215.93,0,0,1,36.07,15.64l.29.17c10.4,6.07,19.41,11.92,27.11,17.46l.26.2A231.39,231.39,0,0,1,524,82.92C528.43,88.22,531.07,92.76,532.07,96.36ZM426.57,84.29a4.79,4.79,0,0,0-4.08-5.39l-13.17-1.82,1.9-13.74A4.77,4.77,0,0,0,407.14,58l-11.78-1.63A4.77,4.77,0,0,0,390,60.41l-1.91,13.77L374.9,72.36a4.78,4.78,0,0,0-5.39,4.08l-1.58,11.45A4.78,4.78,0,0,0,372,93.28l13.16,1.79-1.86,13.41a4.79,4.79,0,0,0,4.08,5.39l11.62,1.6a4.77,4.77,0,0,0,5.39-4.08L406.26,98l13.33,1.85A4.78,4.78,0,0,0,425,95.75Z"/><path class="cls-5" d="M532.19,101.6a19,19,0,0,1-2.82,8l-51.65,81.85c-89.26-85.23-201.35-48.86-201.35-48.86l-6-86.59c2.31,11.83,17.9,37.26,56.21,54.61,41.8,18.93,97.46,40,156,24.12a52.56,52.56,0,0,0,10.81-4.31c5.65-3,15.38-8.32,25.94-14.91C519.37,115.51,529.07,110.66,532.19,101.6Z"/><path class="cls-6" d="M422.49,78.9a4.79,4.79,0,0,1,4.08,5.39L425,95.75a4.78,4.78,0,0,1-5.39,4.08L406.26,98l-1.85,13.41a4.77,4.77,0,0,1-5.39,4.08l-11.62-1.6a4.79,4.79,0,0,1-4.08-5.39l1.86-13.41L372,93.28a4.78,4.78,0,0,1-4.09-5.39l1.58-11.45a4.78,4.78,0,0,1,5.39-4.08l13.16,1.82L390,60.41a4.77,4.77,0,0,1,5.39-4.08L407.14,58a4.77,4.77,0,0,1,4.08,5.38l-1.9,13.74Z"/><path class="cls-7" d="M291.3,26.57q-4.32,1.38-8.71,2.94A19.13,19.13,0,0,0,269.9,48.86l.23,3.33.26,3.81,6,86.59s112.09-36.37,201.35,48.86l51.65-81.85a19,19,0,0,0,2.82-8"/><path class="cls-7" d="M360.82,14.29A244.69,244.69,0,0,0,298,24.5c-2.18.63-4.38,1.31-6.59,2"/><path class="cls-7" d="M432,24.58a208.62,208.62,0,0,0-62.58-10.34c-2.82,0-5.66,0-8.55,0"/><path class="cls-7" d="M468.22,40.27a215.93,215.93,0,0,0-36.07-15.64"/><path class="cls-7" d="M495.62,57.9a229.38,229.38,0,0,0-27.11-17.46"/><path class="cls-7" d="M532.19,101.59a19.18,19.18,0,0,0-4.88-15.1q-1.54-1.69-3.34-3.57A231.39,231.39,0,0,0,495.88,58.1"/><path class="cls-7" d="M270.39,56c2.31,11.83,17.9,37.26,56.21,54.61,41.8,18.93,97.46,40,156,24.12a52.56,52.56,0,0,0,10.81-4.31c5.65-3,15.38-8.32,25.94-14.91,0,0,9.7-4.85,12.82-13.91h0a8.93,8.93,0,0,0-.12-5.23c-1-3.6-3.64-8.14-8.1-13.44-6-7.09-15.19-15.52-28.09-24.82l-.26-.2c-7.7-5.54-16.71-11.39-27.11-17.46l-.29-.17a177.74,177.74,0,0,0-36.07-15.64l-.15-.05a238.69,238.69,0,0,0-62.58-10.34c-4.71-.13-7.4,0-7.4,0l-1.15.08h-.05c-6.34.47-36.62,3-62.78,10.21l-.41.11q-3.36.93-6.18,1.91l-.15.05c-22.71,7.84-20.24,17.27-21.17,25.62A12.88,12.88,0,0,0,270.39,56Z"/><path class="cls-7" d="M385.18,95.07l-1.86,13.41a4.79,4.79,0,0,0,4.08,5.39l11.62,1.6a4.77,4.77,0,0,0,5.39-4.08L406.26,98l13.33,1.85A4.78,4.78,0,0,0,425,95.75l1.59-11.46a4.79,4.79,0,0,0-4.08-5.39l-13.17-1.82,1.9-13.74A4.77,4.77,0,0,0,407.14,58l-11.78-1.63A4.77,4.77,0,0,0,390,60.41l-1.91,13.77L374.9,72.36a4.78,4.78,0,0,0-5.39,4.08l-1.58,11.45A4.78,4.78,0,0,0,372,93.28Z"/><path class="cls-8" d="M476.6,403.64c8.13,10.64-1,19.93-1,19.93s-24,25.94-39.1,8.71c-11.76-13.42,3.15-27.66,10.3-33.29l.83-.64.27-.21h0c2.1-1.06,6.45-1.92,9.66-2.45a3.33,3.33,0,0,0,1,.13C463.33,395.65,471.2,396.57,476.6,403.64Zm-8.85,13.11c1.69-3,5.3-10.85-.73-14.56-7.55-4.65-13.55,1.55-21.2,7.06s-5.13,12.1-5.13,12.1l.43.76a11.8,11.8,0,0,0,16.05,4.64,5.28,5.28,0,0,0,.46-.27l8.55-7.76A7.88,7.88,0,0,0,467.75,416.75Z"/><path class="cls-9" d="M467,402.19c6,3.71,2.42,11.56.73,14.56a7.88,7.88,0,0,1-1.57,2l-8.55,7.76a5.28,5.28,0,0,1-.46.27,11.8,11.8,0,0,1-16.05-4.64l-.43-.76s-2.51-6.58,5.13-12.1S459.47,397.54,467,402.19Zm-8.81,14.13s4.74-2.62,2.32-6-7.33,1.21-7.33,1.21-4.67,3.14-2.25,6S458.21,416.32,458.21,416.32Z"/><path class="cls-8" d="M460.53,410.32c2.42,3.38-2.32,6-2.32,6s-4.84,4.16-7.26,1.25,2.25-6,2.25-6S458.11,406.93,460.53,410.32Z"/><path class="cls-10" d="M457.6,395.69c-3.21.53-7.56,1.39-9.66,2.45l.26-.2a4.06,4.06,0,0,0,1.42-4.52c-1.79-5.49-8.31-14.17-31.28,11.77-30,33.87-71.23,63.77-71.23,63.77s-24.19,12.87-37.74-2c-12-13.18-8-53.76-7-63,.17-1.47.28-2.93.32-4.41.2-7.33.47-28.35-3-34.23-4.25-7.17-28.45-7.36-58,39s-36.51,51.23-49.41,56.65a35.13,35.13,0,0,1-9.35,2.46l3.82-6.78c14.24-6.51,31.86-22.71,44.91-48.23,19.29-37.73,50.62-55.16,64.45-52.64s13.11,41,12.49,46.64c-.67,6-1.36,44.61-.39,49.16s7.36,17.52,27.68,15,58.45-44.9,58.45-44.9l28.45-28.94s10.36-12.77,23.13-10.64c8.13,1.35,9.48,6.75,9.38,10.49A3.22,3.22,0,0,0,457.6,395.69Z"/><path class="cls-11" d="M188.79,329.45c2.84.64,22.07,20.77,19.36,49.8s-4.68,43.07-15.78,64.74a123.85,123.85,0,0,1-8.19,13.71,32.91,32.91,0,0,1-7.48,2c5.46-7.84,13.11-19.86,17.7-31.69,7.75-19.95,13.72-60.17,1.65-81.27s-21.77-8.91-26.32-1.36c-2.6,4.3-5.54,14.15-7.58,21.81a2.29,2.29,0,0,1-4.38.15,34.22,34.22,0,0,0-10.3-15.67c-23-23.71-30.19,20.52-30.19,20.52s-2.13,18.58,9.67,48.09,29,34.84,42.58,39a10.89,10.89,0,0,0,1.42.34l-4.06,2.82a68.52,68.52,0,0,1-19.42-7.9c-21-12.36-31.58-49.22-33.52-62.39s-1-44.51,17.16-52.25c14-6,23.65,10.16,27.35,17.91a1.36,1.36,0,0,0,2.55-.29C169,322.45,186.06,328.82,188.79,329.45Z"/><path class="cls-12" d="M186.75,456.61l-3.82,6.78c-1,.13-2.06.22-3.11.27,1.42-1.83,2.89-3.82,4.36-6C185,457.37,185.88,457,186.75,456.61Z"/><path class="cls-11" d="M184.18,457.7c-1.47,2.14-2.94,4.13-4.36,6a44.49,44.49,0,0,1-5.87-.12c.82-1.12,1.75-2.41,2.75-3.84A32.91,32.91,0,0,0,184.18,457.7Z"/><path class="cls-13" d="M174,463.54a44.49,44.49,0,0,0,5.87.12,107.37,107.37,0,0,1-13.58,14.79s-50.84,39.32-86.35,19.38S39.5,468.15,32.31,451s-3.53-59.22-3.53-61.89a10.43,10.43,0,0,1,.09-1.2c1.51-1.82,4.2-3.87,7.48-3.34l-3.56,27.82c-4.63,31.74,15.29,56.58,15.29,56.58s32.13,35.35,64.07,30.52,58.06-31,58.06-31S171.68,466.64,174,463.54Z"/><path class="cls-12" d="M171,459.62a18.29,18.29,0,0,0,5.75.08c-1,1.43-1.93,2.72-2.75,3.84a50.62,50.62,0,0,1-7.06-1.1Z"/><path class="cls-14" d="M76,269.06c22.69,4.37,17,12.51,17,12.51l-10,45.57q-.69,3.14-1.68,6.19c-2,6.14-6.26,20.24-4.15,22.24a2.33,2.33,0,0,1,.65,1.48A7.76,7.76,0,0,0,73,352.82a1.29,1.29,0,0,1,.44-.15s7.37-48.05,9.8-59.1c2.33-10.56-3.35-13.67-6.37-16.25s-7.3,1.29-7.3,1.29-6.46,1.67-7-6.71,2.19-10.33,9.29-10.33S76,269.06,76,269.06Z"/><path class="cls-15" d="M77.89,357.05c.42,3.72-4.2,11.1-4.2,11.1-8.89,14.44-32.77,9.25-36,8.48-1.53-5.61-5.6-2.08-6.89-.77-17.24-1.75-15.27-25.6-15.15-28.35a3.71,3.71,0,0,1,1.59-3.12,9.07,9.07,0,0,1,4.66-.42.46.46,0,0,0,.11.2c1.84,1.69.16,6.44.16,6.44-1.29,30.84,44.52,21,46.45,11.61,1.47-7.15,3.47-9,4.34-9.4A7.76,7.76,0,0,1,77.89,357.05Z"/><path class="cls-16" d="M40.77,264.55c-3.05-7.66,14.67-11.1,12.34,2.44S43,273.43,43,273.43c-.54-1.85-4.53-.63-4.53-.63-9.68-.19-9.87,9.19-9.87,9.19s-8,57.86-6.69,62a9.07,9.07,0,0,0-4.66.42,2.4,2.4,0,0,1,.51-.27s3.19-46.45,3.87-63,13.2-14.51,16.52-14.42S40.77,264.55,40.77,264.55Z"/><path class="cls-17" d="M37.73,376.63l-.36-.09-1,8c-3.28-.53-6,1.52-7.48,3.34.44-3.73,2.37-12,2.37-12l-.4,0C32.13,374.55,36.2,371,37.73,376.63Z"/></g></g></g></svg>